HIERARCHY
ROOT Hips
{
	OFFSET -0.001795 -0.223333 0.028219
	CHANNELS 6 Xposition Yposition Zposition Zrotation Yrotation Xrotation 
	JOINT LeftUpLeg
	{
		OFFSET 0.069520 -0.091406 -0.006815
		CHANNELS 3 Zrotation Yrotation Xrotation
		JOINT LeftLeg
		{
			OFFSET 0.034277 -0.375199 -0.004496
			CHANNELS 3 Zrotation Yrotation Xrotation
			JOINT LeftFoot
			{
				OFFSET -0.013596 -0.397961 -0.043693
				CHANNELS 3 Zrotation Yrotation Xrotation
				JOINT LeftToe
				{
					OFFSET 0.026358 -0.055791 0.119288
					CHANNELS 3 Zrotation Yrotation Xrotation
					End Site
					{
						OFFSET 0.000000 0.000000 0.000000
					}
				}
			}
		}
	}
	JOINT RightUpLeg
	{
		OFFSET -0.067670 -0.090522 -0.004320
		CHANNELS 3 Zrotation Yrotation Xrotation
		JOINT RightLeg
		{
			OFFSET -0.038290 -0.382569 -0.008850
			CHANNELS 3 Zrotation Yrotation Xrotation
			JOINT RightFoot
			{
				OFFSET 0.015774 -0.398415 -0.042312
				CHANNELS 3 Zrotation Yrotation Xrotation
				JOINT RightToe
				{
					OFFSET -0.025372 -0.048144 0.123348
					CHANNELS 3 Zrotation Yrotation Xrotation
					End Site
					{
						OFFSET 0.000000 0.000000 0.000000
					}
				}
			}
		}
	}
	JOINT Spine
	{
		OFFSET -0.002533 0.108963 -0.026696
		CHANNELS 3 Zrotation Yrotation Xrotation
		JOINT Spine1
		{
			OFFSET 0.005487 0.135180 0.001092
			CHANNELS 3 Zrotation Yrotation Xrotation
			JOINT Spine2
			{
				OFFSET 0.001457 0.052922 0.025425
				CHANNELS 3 Zrotation Yrotation Xrotation
				JOINT Neck
				{
					OFFSET -0.002778 0.213870 -0.042857
					CHANNELS 3 Zrotation Yrotation Xrotation
					JOINT Head
					{
						OFFSET 0.005152 0.064970 0.051349
						CHANNELS 3 Zrotation Yrotation Xrotation
						End Site
						{
							OFFSET 0.000000 0.000000 0.000000
						}
					}
				}
				JOINT LeftShoulder
				{
					OFFSET 0.078845 0.121749 -0.034090
					CHANNELS 3 Zrotation Yrotation Xrotation
					JOINT LeftArm
					{
						OFFSET 0.090977 0.030469 -0.008868
						CHANNELS 3 Zrotation Yrotation Xrotation
						JOINT LeftForeArm
						{
							OFFSET 0.259612 -0.012772 -0.027456
							CHANNELS 3 Zrotation Yrotation Xrotation
							JOINT LeftHand
							{
								OFFSET 0.249234 0.008986 -0.001171
								CHANNELS 3 Zrotation Yrotation Xrotation
								End Site
								{
									OFFSET 0.000000 0.000000 0.000000
								}
							}
						}
					}
				}
				JOINT RightShoulder
				{
					OFFSET -0.081759 0.118833 -0.038615
					CHANNELS 3 Zrotation Yrotation Xrotation
					JOINT RightArm
					{
						OFFSET -0.096012 0.032551 -0.009143
						CHANNELS 3 Zrotation Yrotation Xrotation
						JOINT RightForeArm
						{
							OFFSET -0.253742 -0.013329 -0.021401
							CHANNELS 3 Zrotation Yrotation Xrotation
							JOINT RightHand
							{
								OFFSET -0.255298 0.007772 -0.005559
								CHANNELS 3 Zrotation Yrotation Xrotation
								End Site
								{
									OFFSET 0.000000 0.000000 0.000000
								}
							}
						}
					}
				}
			}
		}
	}
}
MOTION
Frames: 16
Frame Time: 0.050000
0.017061 0.964805 -0.050915 -1.785871 11.818184 -2.358287 6.417013 -0.240133 -0.126698 -1.641926 0.097901 1.626876 -6.033179 -2.750743 13.827854 0.000000 0.000000 0.000000 0.424174 -0.461292 3.911726 1.664173 -0.182918 2.476655 -10.907560 -23.358285 17.854645 0.000000 0.000000 0.000000 -4.740936 -0.067657 7.519722 1.241664 0.547795 -31.574503 2.389925 7.727120 29.629026 10.988639 -0.892301 -35.556724 0.000000 0.000000 0.000000 -23.374616 4.390880 -8.906921 -40.291500 2.496567 -6.279383 -51.803491 -42.394466 20.717682 0.000000 0.000000 0.000000 -9.238529 13.669671 2.552777 -19.726339 50.537285 -8.412434 -72.453497 6.599829 -1.179214 0.000000 0.000000 0.000000 
0.018089 0.965548 -0.051623 -1.653905 13.876442 -2.265991 6.280264 -0.275929 -0.489672 -1.647877 0.095868 1.387596 -7.151752 -4.021565 14.257597 0.000000 0.000000 0.000000 0.596826 -0.550995 4.517712 1.548580 -0.184487 1.885188 -11.743569 -24.545872 18.106018 0.000000 0.000000 0.000000 -4.598711 -0.096164 8.046038 0.746202 0.622634 -32.162067 2.642202 8.654430 29.470012 11.266973 -0.626620 -35.838699 0.000000 0.000000 0.000000 -22.902699 4.079170 -9.311418 -40.684505 3.560316 -6.518067 -48.819731 -41.082531 18.312038 0.000000 0.000000 0.000000 -10.703733 13.809750 2.062097 -20.831973 49.318035 -7.875012 -68.462428 2.892546 1.555726 0.000000 0.000000 0.000000 
0.019722 0.966203 -0.052077 -1.364780 15.763459 -2.284888 5.650666 -0.279630 -0.801294 -1.177758 0.043957 1.484384 -8.164461 -5.179256 14.596489 0.000000 0.000000 0.000000 0.323594 -0.590171 4.825856 1.580842 -0.199089 2.014314 -12.327620 -25.275714 18.585992 0.000000 0.000000 0.000000 -4.336395 -0.128552 8.295698 -0.142998 0.769532 -32.279291 2.928670 8.895763 29.241528 11.314259 -0.487087 -35.346328 0.000000 0.000000 0.000000 -22.683074 4.143160 -9.730276 -40.803850 4.609790 -6.773815 -45.941100 -39.933515 16.368810 0.000000 0.000000 0.000000 -11.833432 14.183196 1.763805 -21.062732 47.782545 -7.199532 -65.289765 0.991658 2.807061 0.000000 0.000000 0.000000 
0.021822 0.966272 -0.052600 -1.133404 17.687420 -2.434282 5.297019 -0.289855 -1.006759 -1.138640 0.028498 1.656286 -9.179012 -6.401181 14.836579 0.000000 0.000000 0.000000 0.119298 -0.678731 5.463355 1.447689 -0.191633 1.716403 -12.903578 -25.920365 19.332606 0.000000 0.000000 0.000000 -4.477734 -0.149758 8.832707 -0.017857 0.743755 -32.428625 2.756705 9.268703 29.012883 11.363993 -0.276267 -35.220600 0.000000 0.000000 0.000000 -22.565426 3.931906 -10.079992 -41.466444 6.008486 -7.247359 -42.730708 -39.401171 14.691793 0.000000 0.000000 0.000000 -12.328489 14.596908 1.632928 -20.466965 45.640325 -6.202067 -63.652886 -0.125151 3.658211 0.000000 0.000000 0.000000 
0.023723 0.966793 -0.053616 -0.899690 18.980889 -2.482423 4.928828 -0.289382 -1.153398 -1.111126 0.020311 1.701900 -9.914872 -7.170514 15.197378 0.000000 0.000000 0.000000 -0.153579 -0.701915 5.635663 1.495808 -0.206237 1.779167 -13.526898 -26.632887 20.160019 0.000000 0.000000 0.000000 -4.576971 -0.166600 9.238728 -0.021033 0.732902 -32.674989 2.835310 9.509054 28.975101 11.304738 -0.099398 -35.106577 0.000000 0.000000 0.000000 -22.330932 4.225674 -10.458937 -41.806453 6.990568 -7.617578 -38.735135 -39.364883 13.102225 0.000000 0.000000 0.000000 -12.188470 14.633487 1.626868 -20.206789 43.502354 -5.546110 -61.856339 -0.907989 4.127480 0.000000 0.000000 0.000000 
0.025029 0.967074 -0.055367 -0.459387 20.027903 -2.369339 4.242044 -0.276024 -1.438485 -0.881429 -0.006283 1.817756 -10.514890 -7.762121 15.530477 0.000000 0.000000 0.000000 -0.739926 -0.674367 5.494578 1.376363 -0.188219 2.408682 -13.347497 -26.241478 20.152631 0.000000 0.000000 0.000000 -4.759382 -0.174925 9.604959 0.362727 0.694223 -32.173525 2.503890 10.229567 28.367557 11.275462 0.099406 -34.847825 0.000000 0.000000 0.000000 -22.818484 3.988424 -10.962771 -41.413909 7.847049 -7.624877 -33.787547 -40.583023 11.611570 0.000000 0.000000 0.000000 -12.221395 14.947962 1.665131 -19.744544 41.111838 -4.774687 -60.816303 -1.582836 4.686199 0.000000 0.000000 0.000000 
0.025316 0.967533 -0.057975 -0.208924 20.722738 -2.084233 4.083131 -0.294114 -1.868815 -1.165132 0.017839 1.720690 -10.962539 -8.071224 15.986573 0.000000 0.000000 0.000000 -1.117052 -0.597536 4.917412 1.465658 -0.207641 2.718852 -13.737452 -26.534432 21.068803 0.000000 0.000000 0.000000 -5.082513 -0.174538 10.101381 0.611352 0.648374 -32.198618 2.335734 10.291664 27.844660 10.996607 0.240853 -34.305440 0.000000 0.000000 0.000000 -22.886434 4.187555 -11.240119 -41.876135 7.952690 -7.708399 -28.414252 -41.580320 9.883593 0.000000 0.000000 0.000000 -12.099860 15.289531 1.825942 -19.680816 39.243703 -4.391042 -59.238222 -2.616140 5.161891 0.000000 0.000000 0.000000 
0.024684 0.967703 -0.061007 0.165151 21.120501 -2.189023 3.485238 -0.267787 -1.845140 -0.871771 -0.022901 2.144947 -10.871980 -8.470212 15.197342 0.000000 0.000000 0.000000 -1.502551 -0.537412 4.431268 1.265984 -0.173694 3.236305 -14.304506 -26.945318 22.621160 0.000000 0.000000 0.000000 -5.298032 -0.194431 10.881517 0.786535 0.624677 -32.026559 1.862219 10.202915 27.555090 11.013151 0.251499 -34.471363 0.000000 0.000000 0.000000 -23.157482 3.944274 -11.199727 -42.375325 7.764090 -7.759993 -24.217936 -41.968483 8.475076 0.000000 0.000000 0.000000 -11.316785 15.266754 2.094510 -19.479954 38.349016 -4.277914 -57.851641 -2.527753 4.918196 0.000000 0.000000 0.000000 
0.023291 0.967924 -0.064123 0.209377 20.141141 -1.912950 3.456592 -0.279050 -2.178315 -1.019108 -0.006735 2.126317 -10.195932 -7.533816 15.133885 0.000000 0.000000 0.000000 -1.779170 -0.440477 3.696710 1.217434 -0.157603 3.192450 -13.723573 -26.015821 22.867098 0.000000 0.000000 0.000000 -5.364292 -0.174944 10.899452 0.859553 0.629847 -31.592947 1.535092 10.420346 27.065835 10.793943 0.282979 -34.290412 0.000000 0.000000 0.000000 -23.570022 4.112362 -11.354183 -42.635866 6.386500 -7.287545 -20.321143 -40.949451 6.903891 0.000000 0.000000 0.000000 -10.898582 14.873669 2.160893 -17.697741 39.235297 -4.158538 -56.634201 -2.086018 4.620993 0.000000 0.000000 0.000000 
0.021415 0.967634 -0.066871 0.263933 19.318394 -1.803442 3.345655 -0.282084 -2.388893 -0.986261 -0.004338 2.060383 -9.611566 -6.607005 15.240938 0.000000 0.000000 0.000000 -2.174175 -0.361694 3.048162 1.102725 -0.129440 3.520400 -12.577360 -24.295592 22.772513 0.000000 0.000000 0.000000 -5.698460 -0.131127 10.582194 1.093872 0.601499 -31.008505 1.455901 9.758165 26.766665 10.489504 0.196321 -33.910795 0.000000 0.000000 0.000000 -24.093298 3.576732 -10.871115 -43.493494 5.187611 -7.091089 -17.792780 -40.272926 6.065637 0.000000 0.000000 0.000000 -8.552414 14.935671 2.984553 -15.085624 40.580248 -4.171358 -56.099974 1.980336 2.387858 0.000000 0.000000 0.000000 
0.019412 0.967402 -0.069151 0.078614 18.188049 -1.774415 3.597172 -0.290435 -2.501101 -0.991013 -0.000461 2.063811 -9.003524 -5.881255 15.089840 0.000000 0.000000 0.000000 -2.058610 -0.321636 2.754196 0.928182 -0.089684 3.568301 -11.429100 -22.827526 21.595951 0.000000 0.000000 0.000000 -5.972585 -0.093016 10.306005 1.534361 0.525538 -30.462906 1.033959 9.140934 26.235084 9.710892 0.321164 -33.334050 0.000000 0.000000 0.000000 -24.598541 3.131179 -10.392859 -44.074968 3.895347 -6.763762 -17.053553 -39.158973 5.802459 0.000000 0.000000 0.000000 -5.306748 14.372609 3.862808 -9.813544 41.577160 -3.479884 -56.794719 9.071817 -1.113062 0.000000 0.000000 0.000000 
0.017450 0.966814 -0.070854 -0.074943 17.040086 -1.808516 3.795729 -0.285335 -2.423380 -0.935346 0.001789 1.965619 -8.371200 -5.177386 14.850982 0.000000 0.000000 0.000000 -2.036277 -0.250739 2.140297 1.069818 -0.103314 4.086240 -10.864358 -22.143089 21.007682 0.000000 0.000000 0.000000 -6.506310 -0.030260 9.295312 2.086513 0.434892 -28.887090 0.816276 7.453146 25.665090 8.559613 0.411989 -32.386080 0.000000 0.000000 0.000000 -25.456799 2.982509 -9.812770 -44.636709 2.490231 -6.456839 -17.660991 -38.452619 6.185910 0.000000 0.000000 0.000000 -0.985254 13.888843 4.982527 -2.645894 42.253175 -2.318839 -58.091512 20.431594 -7.100320 0.000000 0.000000 0.000000 
0.015478 0.966474 -0.072002 -0.504935 15.716292 -2.003862 4.498266 -0.297838 -2.471424 -1.225926 0.018917 2.371356 -7.632927 -4.362045 14.555090 0.000000 0.000000 0.000000 -1.889430 -0.224618 1.962029 1.264223 -0.126312 4.320007 -9.585310 -20.383183 19.860711 0.000000 0.000000 0.000000 -6.855239 0.002801 8.879132 3.042591 0.219104 -28.380861 0.925771 6.397071 26.038137 7.620644 0.611185 -32.481914 0.000000 0.000000 0.000000 -27.031574 2.713406 -9.573964 -44.405577 1.511989 -6.115978 -19.241857 -38.897858 7.064998 0.000000 0.000000 0.000000 4.107545 12.754594 5.876594 6.106151 39.601858 -0.689351 -59.371978 34.993364 -15.118773 0.000000 0.000000 0.000000 
0.013093 0.966216 -0.072638 -0.836475 13.948400 -2.091085 5.011472 -0.284714 -2.231019 -1.311384 0.035399 2.338643 -6.707918 -3.251336 14.337096 0.000000 0.000000 0.000000 -2.114913 -0.192587 1.751133 1.837865 -0.213171 4.346683 -8.044756 -18.158064 18.822377 0.000000 0.000000 0.000000 -7.078427 0.031559 7.811531 3.841247 0.007332 -27.175759 0.911947 5.202612 26.237022 6.371901 0.892554 -32.560018 0.000000 0.000000 0.000000 -27.663804 2.743302 -8.938744 -44.737600 -0.903804 -5.514097 -20.958982 -38.314225 7.821095 0.000000 0.000000 0.000000 8.951423 11.281922 6.255179 16.169511 36.227702 0.783982 -56.066127 50.806000 -22.306402 0.000000 0.000000 0.000000 
0.010143 0.965462 -0.072910 -1.078148 12.635174 -2.096267 5.591488 -0.292101 -2.366638 -1.592150 0.055864 2.775495 -5.975701 -2.422001 14.053844 0.000000 0.000000 0.000000 -1.884986 -0.173901 1.637547 1.934153 -0.216182 4.845586 -6.874291 -16.456595 16.432673 0.000000 0.000000 0.000000 -7.370737 0.055990 7.452127 4.902856 -0.271421 -26.681106 0.855648 4.104476 26.498408 5.059479 1.258132 -32.535854 0.000000 0.000000 0.000000 -28.630900 2.440156 -8.320232 -44.658577 -2.532136 -5.074799 -21.171087 -39.156502 8.325612 0.000000 0.000000 0.000000 12.880269 10.082214 6.293322 25.566308 29.494004 1.034268 -43.924672 64.802471 -22.104722 0.000000 0.000000 0.000000 
0.006613 0.964484 -0.072952 -1.140658 11.183332 -2.148767 6.044294 -0.286283 -2.432159 -1.923324 0.083326 3.339926 -5.182454 -1.503301 13.780981 0.000000 0.000000 0.000000 -2.334406 -0.158762 1.594519 2.442325 -0.291109 5.068308 -5.267772 -13.792414 14.825227 0.000000 0.000000 0.000000 -7.207276 0.058207 7.063628 5.263055 -0.405531 -25.963578 0.924038 3.108589 26.671323 3.325094 1.892348 -33.387082 0.000000 0.000000 0.000000 -29.327244 2.478214 -7.766867 -44.218612 -4.847279 -4.405233 -22.633469 -38.520195 8.932474 0.000000 0.000000 0.000000 15.576895 8.884996 5.856540 33.787375 23.268145 0.368991 -13.083858 69.363059 -2.815361 0.000000 0.000000 0.000000 
